<svg id="Слой_1" data-name="Слой 1" xmlns="http://www.w3.org/2000/svg" viewBox="0 0 91.6 70.18"><defs><style>.cls-1{fill:#fff;}.cls-2{fill:#36a9e1;}</style></defs><title>isg logo</title><path class="cls-1" d="M9.2,45.86a2.87,2.87,0,0,1-3,3.19,2.87,2.87,0,0,1-3-3.19V19.18a2.87,2.87,0,0,1,3-3.18,2.87,2.87,0,0,1,3,3.18Z"/><path class="cls-1" d="M43.16,5.62a2.6,2.6,0,0,1-2.58,2.65c-2.64,0-3.52-3.12-9.48-3.12-4.41,0-7.66,2.78-7.66,6.84,0,10.64,22.9,5.56,22.9,21.82,0,8-5.82,15.24-16.33,15.24-6.36,0-13.41-2.44-13.41-5.83,0-1.62.81-3,2.51-3,2,0,4.88,3.73,11,3.73A9.47,9.47,0,0,0,40,34.08c0-11.45-22.9-5.9-22.9-21.68C17.07,6.77,22.36,0,31.3,0,37.26,0,43.16,2.51,43.16,5.62Z"/><path class="cls-1" d="M77.23,26.56a2.6,2.6,0,0,1-2.91-2.78A2.6,2.6,0,0,1,77.23,21h10c3,0,4.34,1.15,4.34,4.88,0,11.65-4.2,23.17-20.6,23.17-13.89,0-21.14-12-21.14-24.53S56.77,0,71.88,0c9.89,0,16.53,5.15,16.53,7.72a2.78,2.78,0,0,1-2.84,2.85c-3,0-5.42-5.42-14.09-5.42-10.84,0-15.25,10.16-15.25,19.37S60.5,43.9,71.75,43.9c9.35,0,13.88-8,13.88-14.5V26.56Z"/><circle class="cls-2" cx="6.13" cy="6.13" r="6.13"/><path class="cls-1" d="M20.15,58.82a1,1,0,1,1,2,0v.48l.05,0a4.14,4.14,0,0,1,3.35-1.59c1.86,0,4.21,1.18,4.21,4.6v6.72a1,1,0,1,1-2,0V62.46a2.81,2.81,0,1,0-5.61,0v6.61a1,1,0,1,1-2,0Z"/><path class="cls-1" d="M33.68,64.72a3.45,3.45,0,0,0,3.57,3.69c2.67,0,3.35-1.64,4.1-1.64a.79.79,0,0,1,.73.89c0,1-2.48,2.48-4.85,2.48-3.87,0-5.56-3-5.56-6.19s2-6.2,5.45-6.2,5.21,3,5.21,5.9c0,.71-.25,1.07-1.11,1.07Zm6.65-1.5c0-1.73-1-3.69-3.21-3.74-2.49,0-3.37,1.89-3.44,3.74Z"/><path class="cls-1" d="M52.86,70.14a1,1,0,0,1-1-1.07v-.48l0,0a4.14,4.14,0,0,1-3.35,1.59c-1.87,0-4.22-1.18-4.22-4.6V58.82a1,1,0,1,1,2,0v6.61a2.81,2.81,0,1,0,5.6,0V58.82a1,1,0,1,1,2,0V69.07A1,1,0,0,1,52.86,70.14Z"/><path class="cls-1" d="M56.5,58.82a1,1,0,1,1,2,0v1h0a3.59,3.59,0,0,1,2.73-2.09,1,1,0,0,1,1.12,1c0,.57-.41.94-1.25,1.1a3.15,3.15,0,0,0-2.65,3.44v5.76a1,1,0,1,1-2,0Z"/><circle class="cls-2" cx="69.27" cy="63.97" r="6.21"/></svg>